<?xml version="1.0" encoding="utf-8"?>
<!-- Generator: Adobe Illustrator 23.0.3, SVG Export Plug-In . SVG Version: 6.00 Build 0)  -->
<svg version="1.2" baseProfile="tiny" id="Слой_1"
     xmlns="http://www.w3.org/2000/svg" x="0px" y="0px" viewBox="0 0 720 180"
     xml:space="preserve">
<path fill="#C4142D" d="M2.9,8.7h33l25.8,136.7H86l5.3,27.1H34.4L2.9,8.7z"/>
<path fill="#C4142D" d="M105,8.7l18.1,121.1h0.5L142.9,8.7h31.7l19.3,121.1h0.5L212.5,8.7h31.7l-29.8,163.8h-36.9L159.2,53.7h-0.5
	l-18.6,118.8h-36.9L73.4,8.7H105z"/>
<path d="M316.3,8.7l43.4,163.8h-34.4l-7.6-34.6h-43.6l-7.6,34.6h-34.4L275.5,8.7C275.5,8.7,316.3,8.7,316.3,8.7z M311.9,110.8
	l-15.8-73.7h-0.5l-15.8,73.6L311.9,110.8L311.9,110.8z"/>
<path d="M462.6,35.8h-58.5v38.5h55.1v27.1h-55.1v44h60.8v27.1h-93.8V8.7h91.5V35.8z"/>
<path d="M542.5,8.7c13.8,0,24.5,3.5,32.1,10.4c7.6,7,11.5,17.5,11.5,31.8c0,11-2.2,20-6.7,27c-4.4,7-11.3,11.4-20.6,13.4v0.5
	c8.3,1.2,14.3,3.9,18.1,8s6.2,10.8,7.1,20c0.3,3.1,0.5,6.4,0.7,10c0.1,3.6,0.3,7.6,0.5,12c0.3,8.7,0.8,15.4,1.4,20
	c0.9,4.6,2.9,7.7,6,9.4v1.4h-35.8c-1.7-2.3-2.8-4.9-3.2-7.9c-0.5-3-0.8-6.1-0.9-9.3l-0.9-31.4c-0.3-6.4-1.9-11.5-4.8-15.1
	c-2.9-3.7-7.8-5.5-14.7-5.5h-17.7v69.3h-33V8.7H542.5z M528.1,80.3c7.9,0,14.1-1.9,18.3-5.6c4.3-3.7,6.4-10.1,6.4-18.9
	c0-15.1-7.6-22.7-22.9-22.7h-15.6v47.3h13.8V80.3z"/>
<path d="M607.3,56.3c1.1-10.5,3.7-19.5,7.6-27c3.9-7.5,9.5-13.3,16.9-17.5c7.3-4.2,17.2-6.3,29.6-6.3c12.4,0,22.3,2.1,29.6,6.3
	c7.3,4.2,13,10.1,16.9,17.5c3.9,7.5,6.4,16.5,7.6,27c1.1,10.5,1.7,21.9,1.7,34.3c0,12.5-0.6,24-1.7,34.4
	c-1.1,10.4-3.7,19.3-7.6,26.8s-9.5,13.2-16.9,17.2c-7.3,4-17.2,6-29.6,6c-12.4,0-22.2-2-29.6-6c-7.3-4-13-9.7-16.9-17.2
	s-6.4-16.4-7.6-26.8c-1.1-10.4-1.7-21.9-1.7-34.4C605.5,78.2,606,66.8,607.3,56.3z M639.3,118.7c0.5,7.7,1.6,14,3.2,18.8
	c1.6,4.8,3.9,8.3,6.9,10.6c3,2.2,6.9,3.3,11.8,3.3c4.9,0,8.8-1.1,11.8-3.3c3-2.2,5.3-5.7,6.9-10.6c1.6-4.8,2.7-11.1,3.2-18.8
	s0.8-17.1,0.8-28.1s-0.3-20.3-0.8-28c-0.5-7.6-1.6-13.9-3.2-18.8c-1.6-4.9-3.9-8.4-6.9-10.7c-3-2.2-6.9-3.3-11.8-3.3
	c-4.9,0-8.8,1.1-11.8,3.3c-3,2.2-5.3,5.8-6.9,10.7c-1.6,4.9-2.7,11.2-3.2,18.8s-0.8,17-0.8,28S638.8,111,639.3,118.7z"/>
</svg>
