<svg width="295" height="77" viewBox="0 0 295 77" fill="none" xmlns="http://www.w3.org/2000/svg">
    <path d="M16.8169 61.6966V0.0158691H0V76.1035H54.9242V61.6966H16.8169Z" fill="#C51D34"/>
    <path d="M114.202 0L98.409 51.3355L81.3782 0H66.7339L49.703 51.3355L33.9096 0H15.8949V0.0153522L16.8125 2.70418L36.6646 60.9263L36.9271 61.6961L41.8107 76.0197L41.8394 76.103H56.6888L73.8321 26.6887L90.9822 76.103H105.834L131.78 0H114.202Z"
          fill="#C51D34"/>
    <path d="M141.111 23H132.418L114.053 76.7612H123.663L127.583 64.7887H145.701L149.619 76.7612H159.479L141.111 23ZM130.949 54.4106L136.642 37.0999L142.335 54.4106H130.949Z"
          fill="#303030" fill-opacity="0.6"/>
    <path d="M175.389 65.9335V54.7242H195.59V44.2759H175.389V33.4483H198.345V23H166.096V76.3796H198.651V65.9335H175.389Z"
          fill="#303030" fill-opacity="0.6"/>
    <path d="M233.666 57.3187C236.4 56.0482 238.613 54.0524 240.307 51.3314C242.001 48.6104 242.851 45.0896 242.857 40.7691V40.6155C242.857 35.5318 241.633 31.4649 239.185 28.4149C236.286 24.805 232.124 23 226.698 23H207.11V76.3796H216.536V59.2926H223.943L233.125 76.373H244.154L233.666 57.3187ZM233.297 41.381C233.297 43.6692 232.675 45.4968 231.431 46.8639C230.187 48.231 228.401 48.9174 226.074 48.9233H216.525V33.5996H225.89C228.218 33.5996 230.034 34.2349 231.339 35.5055C232.643 36.776 233.296 38.6826 233.297 41.2252V41.381Z"
          fill="#303030" fill-opacity="0.6"/>
    <path d="M293.317 38.745C292.289 35.5849 290.692 32.6369 288.603 30.0447C286.634 27.6204 284.187 25.6224 281.412 24.1736C278.581 22.7447 275.451 22 272.276 22C269.101 22 265.971 22.7447 263.14 24.1736C260.337 25.6283 257.875 27.6551 255.916 30.1214C253.834 32.75 252.229 35.7184 251.171 38.8941C250.008 42.3467 249.429 45.9669 249.457 49.6077V49.7591C249.429 53.3984 249.998 57.0179 251.142 60.4749C252.17 63.632 253.767 66.577 255.854 69.1664C257.824 71.5915 260.271 73.5903 263.047 75.0397C265.878 76.4686 269.008 77.2133 272.183 77.2133C275.358 77.2133 278.489 76.4686 281.32 75.0397C284.122 73.5844 286.583 71.5577 288.544 69.0919C290.623 66.4624 292.228 63.4942 293.286 60.3192C294.449 56.8666 295.028 53.2464 295 49.6056V49.452C295.027 45.8158 294.459 42.1995 293.317 38.745ZM285.156 49.7635C285.172 51.9468 284.852 54.1198 284.207 56.207C283.63 58.1061 282.741 59.8972 281.576 61.5079C280.498 62.9901 279.102 64.2144 277.488 65.0915C275.894 65.9575 274.104 66.4037 272.287 66.3877C270.454 66.411 268.648 65.9509 267.053 65.0542C265.451 64.1383 264.055 62.9051 262.952 61.4311C261.745 59.8231 260.833 58.016 260.257 56.0929C259.614 53.9925 259.294 51.8076 259.308 49.6121V49.4586C259.292 47.2753 259.612 45.1023 260.257 43.0151C260.837 41.118 261.728 39.3292 262.895 37.7208C263.96 36.2452 265.339 35.0209 266.934 34.1349C268.538 33.2635 270.34 32.8171 272.168 32.8388C273.99 32.8244 275.784 33.2849 277.371 34.1744C278.986 35.0839 280.393 36.3169 281.503 37.7953C282.708 39.4039 283.62 41.2109 284.196 43.1335C284.839 45.2347 285.158 47.4204 285.145 49.6165L285.156 49.7635Z"
          fill="#303030" fill-opacity="0.6"/>
</svg>
